<?xml version="1.0" encoding="utf-8"?>
<!-- Generator: Adobe Illustrator 21.1.0, SVG Export Plug-In . SVG Version: 6.00 Build 0)  -->
<svg version="1.1" id="Слой_1" xmlns="http://www.w3.org/2000/svg" xmlns:xlink="http://www.w3.org/1999/xlink" x="0px" y="0px"
	 viewBox="0 0 20.5 18" style="enable-background:new 0 0 20.5 18;" xml:space="preserve">
<style type="text/css">
	.st0{fill:#FFFFFF;}
</style>
<g id="Layer_1">
</g>
<g id="Layer_2">
	<g>
		<polygon class="st0" points="5.7,5.9 3.5,8.1 9.6,14.2 20.5,3.3 18.3,1 9.6,9.7 		"/>
		<path class="st0" d="M16.4,15.7c0,0.4-0.4,0.8-0.8,0.8H2.3c-0.4,0-0.8-0.4-0.8-0.8V2.3c0-0.4,0.4-0.8,0.8-0.8h13.2l1.2-1.2
			C16.5,0.1,16.1,0,15.7,0H2.3C1.1,0,0,1.1,0,2.3v13.3C0,17,1.1,18,2.3,18h13.3C17,18,18,17,18,15.7V8l-1.6,1.6V15.7z"/>
	</g>
</g>
</svg>
