<?xml version="1.0" encoding="utf-8"?>
<!-- Generator: Adobe Illustrator 21.1.0, SVG Export Plug-In . SVG Version: 6.00 Build 0)  -->
<svg version="1.1" id="Слой_1" xmlns="http://www.w3.org/2000/svg" xmlns:xlink="http://www.w3.org/1999/xlink" x="0px" y="0px"
	 viewBox="0 0 20.5 18" style="enable-background:new 0 0 20.5 18;" xml:space="preserve">
<style type="text/css">
	.st0{fill:#FFFFFF;}
</style>
<g id="Layer_1">
</g>
<path class="st0" d="M16.8,0.3L16.8,0.3C16.8,0.3,16.8,0.3,16.8,0.3c-0.2-0.1-0.3-0.2-0.5-0.2c0,0-0.1,0-0.1,0C16.1,0,15.9,0,15.7,0
	H2.3C2.1,0,2,0,1.8,0.1c0,0-0.1,0-0.1,0C1.5,0.2,1.3,0.2,1.2,0.3c0,0,0,0,0,0l0,0C0.5,0.7,0,1.5,0,2.3V8v7.7C0,17,1.1,18,2.3,18
	h13.3C17,18,18,17,18,15.7V8V2.3C18,1.5,17.5,0.7,16.8,0.3z M16.4,15.7c0,0.4-0.4,0.8-0.8,0.8H2.3c-0.4,0-0.8-0.4-0.8-0.8V9.5V2.3
	c0-0.4,0.4-0.8,0.8-0.8h0.1h13.2h0.1c0.4,0,0.8,0.4,0.8,0.8v7.2V15.7z"/>
</svg>
