<?xml version="1.0" encoding="utf-8"?>
<!-- Generator: Adobe Illustrator 21.1.0, SVG Export Plug-In . SVG Version: 6.00 Build 0)  -->
<svg version="1.1" id="Слой_1" xmlns="http://www.w3.org/2000/svg" xmlns:xlink="http://www.w3.org/1999/xlink" x="0px" y="0px"
	 viewBox="0 0 76.3 58.6" style="enable-background:new 0 0 76.3 58.6;" xml:space="preserve">
<style type="text/css">
	.st0{fill:none;}
	.st1{fill:#FFFFFF;}
	.st2{fill:#A8B9AF;}
</style>
<line class="st0" x1="-26.5" y1="54" x2="-38.5" y2="54"/>
<g>
	<g>
		<g>
			<path class="st1" d="M-29.6-47c-3,3-7.9,3-10.9,0l-16.8-16.8c-3-3-3-7.9,0-10.9c3-3,7.9-3,10.9,0l10,10c0.8,0.8,2,0.8,2.7,0
				l27.1-27.1c3-3,7.9-3,10.9,0c1.4,1.4,2.2,3.4,2.2,5.4s-0.8,4-2.2,5.4L-29.6-47z"/>
			<path class="st2" d="M-1.1-94.1c2,0,3.9,0.7,5.4,2.2c1.4,1.4,2.2,3.4,2.2,5.4c0,2-0.8,4-2.2,5.4L-29.6-47
				c-1.5,1.5-3.5,2.2-5.4,2.2c-2,0-3.9-0.7-5.4-2.2l-16.8-16.8c-3-3-3-7.9,0-10.9c1.5-1.5,3.5-2.2,5.4-2.2s3.9,0.7,5.4,2.2l10,10
				c0.4,0.4,0.9,0.6,1.4,0.6s1-0.2,1.4-0.6l27.1-27.1C-5-93.3-3-94.1-1.1-94.1 M-1.1-96c-2.6,0-5,1-6.8,2.8L-35-66l-10-10
				c-1.8-1.8-4.2-2.8-6.8-2.8c-2.6,0-5,1-6.8,2.8c-1.8,1.8-2.8,4.2-2.8,6.8c0,2.6,1,5,2.8,6.8l16.8,16.8c1.8,1.8,4.2,2.8,6.8,2.8
				c2.6,0,5-1,6.8-2.8L5.7-79.6c1.8-1.8,2.8-4.2,2.8-6.8c0-2.6-1-5-2.8-6.8C3.9-95,1.5-96-1.1-96L-1.1-96z"/>
		</g>
	</g>
</g>
<g>
	<g>
		<g>
			<path class="st1" d="M34.8,52.4c-3.1,3.1-8.1,3.1-11.2,0L6.3,35.1C3.2,32,3.2,27,6.3,23.9c3.1-3.1,8.1-3.1,11.2,0l10.3,10.3
				c0.8,0.8,2,0.8,2.8,0L58.5,6.3c3.1-3.1,8.1-3.1,11.2,0c1.5,1.5,2.3,3.5,2.3,5.6s-0.8,4.1-2.3,5.6L34.8,52.4z"/>
			<path class="st2" d="M64.1,4c2,0,4,0.8,5.6,2.3c1.5,1.5,2.3,3.5,2.3,5.6c0,2.1-0.8,4.1-2.3,5.6L34.8,52.4
				c-1.5,1.5-3.6,2.3-5.6,2.3s-4-0.8-5.6-2.3L6.3,35.1C3.2,32,3.2,27,6.3,23.9c1.5-1.5,3.6-2.3,5.6-2.3s4,0.8,5.6,2.3l10.3,10.3
				c0.4,0.4,0.9,0.6,1.4,0.6s1-0.2,1.4-0.6L58.5,6.3C60.1,4.8,62.1,4,64.1,4 M64.1,0c-3.2,0-6.2,1.2-8.4,3.5L29.2,30l-8.9-8.9
				c-2.2-2.2-5.2-3.5-8.4-3.5c-3.2,0-6.2,1.2-8.4,3.5C1.2,23.3,0,26.3,0,29.5s1.2,6.2,3.5,8.4l17.3,17.3c2.2,2.2,5.2,3.5,8.4,3.5
				c3.2,0,6.2-1.2,8.4-3.5l34.9-34.9c2.2-2.2,3.5-5.2,3.5-8.4c0-3.2-1.2-6.2-3.5-8.4C70.3,1.2,67.3,0,64.1,0L64.1,0z"/>
		</g>
	</g>
</g>
<g>
	<g>
		<g>
			<path class="st1" d="M-163.8,46.9c-2.6,0-5.1-1-7-2.9l-17.3-17.3c-1.9-1.9-2.9-4.4-2.9-7s1-5.1,2.9-7c1.9-1.9,4.4-2.9,7-2.9
				c2.6,0,5.1,1,7,2.9l10.3,10.3l27.9-27.9c1.9-1.9,4.4-2.9,7-2.9l0,0c2.6,0,5.1,1,7,2.9c1.9,1.9,2.9,4.4,2.9,7s-1,5.1-2.9,7
				L-156.8,44C-158.7,45.9-161.2,46.9-163.8,46.9z"/>
			<path class="st2" d="M-128.9-5.8c2,0,4,0.8,5.6,2.3C-121.8-2-121,0-121,2.1c0,2.1-0.8,4.1-2.3,5.6l-34.9,34.9
				c-1.5,1.5-3.6,2.3-5.6,2.3c-2,0-4-0.8-5.6-2.3l-17.3-17.3c-3.1-3.1-3.1-8.1,0-11.2c1.5-1.5,3.6-2.3,5.6-2.3s4,0.8,5.6,2.3
				l10.3,10.3c0.4,0.4,0.9,0.6,1.4,0.6s1-0.2,1.4-0.6l27.9-27.9C-132.9-5-130.9-5.8-128.9-5.8 M-128.9-9.8c-3.2,0-6.2,1.2-8.4,3.5
				l-26.5,26.5l-8.9-8.9c-2.2-2.2-5.2-3.5-8.4-3.5c-3.2,0-6.2,1.2-8.4,3.5c-2.2,2.2-3.5,5.2-3.5,8.4c0,3.2,1.2,6.2,3.5,8.4
				l17.3,17.3c2.2,2.2,5.2,3.5,8.4,3.5c3.2,0,6.2-1.2,8.4-3.5l34.9-34.9c2.2-2.2,3.5-5.2,3.5-8.4c0-3.2-1.2-6.2-3.5-8.4
				C-122.7-8.6-125.7-9.8-128.9-9.8L-128.9-9.8z"/>
		</g>
	</g>
</g>
<rect x="-108" y="-19" class="st2" width="19" height="18"/>
</svg>
