<?xml version="1.0" encoding="utf-8"?>
<!-- Generator: Adobe Illustrator 21.1.0, SVG Export Plug-In . SVG Version: 6.00 Build 0)  -->
<svg version="1.1" id="Layer_1" xmlns="http://www.w3.org/2000/svg" xmlns:xlink="http://www.w3.org/1999/xlink" x="0px" y="0px"
	 viewBox="0 0 38 38" style="enable-background:new 0 0 38 38;" xml:space="preserve">
<style type="text/css">
	.st0{fill:#FFFFFF;}
	.st1{opacity:0.5;fill:#FFFFFF;}
</style>
<path class="st0" d="M19,3C10.2,3,3,10.2,3,19s7.2,16,16,16s16-7.2,16-16S27.8,3,19,3z M23.1,15.9v3.4h-3V28h-3v-8.6h-3V16h3v-3.5
	C17,10.6,18.4,9,20,9h3l0.1,3.5h-3v3.4H23.1z"/>
<path class="st1" d="M19,3c8.8,0,16,7.2,16,16s-7.2,16-16,16S3,27.8,3,19S10.2,3,19,3 M19,0C8.5,0,0,8.5,0,19s8.5,19,19,19
	s19-8.5,19-19S29.5,0,19,0L19,0z"/>
</svg>
