<?xml version="1.0" encoding="UTF-8" standalone="no"?>
<!-- Generator: Adobe Illustrator 21.1.0, SVG Export Plug-In . SVG Version: 6.00 Build 0)  -->
<svg id="Layer_1" style="enable-background:new 0 0 61 61" xmlns="http://www.w3.org/2000/svg" xml:space="preserve" viewBox="0 0 61 61" version="1.1" y="0px" x="0px" xmlns:xlink="http://www.w3.org/1999/xlink">
<style type="text/css">
	.st0{fill:#FFFFFF;}
	.st1{fill:#231F20;}
</style>
<circle cy="30.5" cx="30.5" r="30.5" class="st0"/>
	<path class="st1" d="m20 18.3c-0.9 2.7-1.7 5.4-2.5 8.1-0.5-2.9-0.9-5.8-1-8.7 0-0.4-1.9-0.1-1.9 0.5 0.1 4.2 0.8 8.4 1.7 12.4-1.2 4.6-2.3 9.2-3.6 13.8-0.1 0.4 1.8 0.1 1.9-0.3 0.9-3.3 1.7-6.5 2.6-9.8 0.8 3.2 1.6 6.4 2.3 9.7 0.1 0.5 2 0 1.9-0.5-0.9-4.5-2.1-8.8-3.1-13.2 1.1-4.1 2.2-8.2 3.6-12.2 0.1-0.5-1.7-0.3-1.9 0.2z"/>
	<path class="st1" d="m34.4 18.8c0-1-1.9-0.8-2 0.1v0.2c0 0.1-0.1 0.1-0.1 0.2-1 4.5-2.6 8.7-4.1 13.1-0.6 1.9-1.1 3.9-1.7 5.9-0.1-6.6-0.1-13.2-0.2-19.9 0-1-2-0.8-2 0.1 0 8.3 0 16.6 0.3 25v0.3c0 0.1 0 0.3 0.1 0.4 0.1 0.9 2 0.5 1.9-0.3 1.6-4.2 2.5-8.6 3.9-12.8 0.5-1.6 1-3.1 1.6-4.7-0.1 6 0.1 12 0.2 18 0 1 1.6 0.8 1.9 0.1 0 0 0-0.1 0.1-0.1 0.1-0.2 0.1-0.4 0-0.6-0.1-8.4-0.3-16.7 0.1-25z"/>
	<path class="st1" d="m47.3 17.7c-3.2 0.4-6.3 0.2-9.5 0-0.5 0-2.2 0.9-1.2 0.9 1.1 0.1 2.2 0.1 3.3 0.1-0.1 0.1-0.2 0.2-0.2 0.3 0.3 8.4-1.1 17.2 0.2 25.6 0.1 0.4 2 0 1.9-0.5-1.2-8.2 0.1-17-0.2-25.3 1.8 0 3.6-0.1 5.3-0.3 1-0.1 1.8-1 0.4-0.8z"/>
</svg>
