<?xml version="1.0" encoding="utf-8"?>
<!-- Generator: Adobe Illustrator 21.1.0, SVG Export Plug-In . SVG Version: 6.00 Build 0)  -->
<svg version="1.1" id="Layer_1" xmlns="http://www.w3.org/2000/svg" xmlns:xlink="http://www.w3.org/1999/xlink" x="0px" y="0px"
	 viewBox="0 0 32 32" style="enable-background:new 0 0 32 32;" xml:space="preserve">
<style type="text/css">
	.st0{fill:#849D8F;}
</style>
<g>
	<path class="st0" d="M21.7,8H10.3C9,8,8,9,8,10.3v11.4C8,23,9,24,10.3,24h11.4c1.3,0,2.3-1,2.3-2.3V10.3C24,9,23,8,21.7,8z
		 M16,13.3c1.5,0,2.7,1.2,2.7,2.7s-1.2,2.7-2.7,2.7s-2.7-1.2-2.7-2.7S14.5,13.3,16,13.3z M21.6,21.7H10.2v-6.8h0.9
		c0,0.3-0.1,0.7-0.1,1.1c0,2.7,2.3,4.9,5,4.9s4.9-2.2,4.9-4.9c0-0.4,0-0.8-0.2-1.1h0.9V21.7z M21.6,13.3h-3v-3h3V13.3z"/>
</g>
</svg>
