<?xml version="1.0" encoding="utf-8"?>
<!-- Generator: Adobe Illustrator 21.1.0, SVG Export Plug-In . SVG Version: 6.00 Build 0)  -->
<svg version="1.1" id="Layer_1" xmlns="http://www.w3.org/2000/svg" xmlns:xlink="http://www.w3.org/1999/xlink" x="0px" y="0px"
	 viewBox="0 0 38 38" style="enable-background:new 0 0 38 38;" xml:space="preserve">
<style type="text/css">
	.st0{opacity:0.5;fill:#FFFFFF;}
	.st1{fill:#FFFFFF;}
</style>
<g>
	<path class="st0" d="M19,3c8.8,0,16,7.2,16,16s-7.2,16-16,16S3,27.8,3,19S10.2,3,19,3 M19,0C8.5,0,0,8.5,0,19s8.5,19,19,19
		s19-8.5,19-19S29.5,0,19,0L19,0z"/>
	<g>
		<path class="st1" d="M23.9,19c0,2.7-2.2,4.9-4.9,4.9s-5-2.2-5-4.9c0-0.4,0.1-0.8,0.1-1.1h-0.9v6.8h11.4v-6.8h-0.9
			C23.9,18.2,23.9,18.6,23.9,19z"/>
		<path class="st1" d="M19,21.7c1.5,0,2.7-1.2,2.7-2.7s-1.2-2.7-2.7-2.7s-2.7,1.2-2.7,2.7S17.5,21.7,19,21.7z"/>
		<path class="st1" d="M19,3C10.2,3,3,10.2,3,19s7.2,16,16,16s16-7.2,16-16S27.8,3,19,3z M27,24.7c0,1.3-1,2.3-2.3,2.3H13.3
			C12,27,11,26,11,24.7V13.3c0-1.3,1-2.3,2.3-2.3h11.4c1.3,0,2.3,1,2.3,2.3V24.7z"/>
		<rect x="21.6" y="13.3" class="st1" width="3" height="3"/>
	</g>
</g>
</svg>
