<?xml version="1.0" encoding="UTF-8" standalone="no"?>
<!-- Generator: Adobe Illustrator 21.1.0, SVG Export Plug-In . SVG Version: 6.00 Build 0)  -->
<svg id="Слой_1" style="enable-background:new 0 0 49 49" xmlns="http://www.w3.org/2000/svg" xml:space="preserve" viewBox="0 0 49 49" version="1.1" y="0px" x="0px" xmlns:xlink="http://www.w3.org/1999/xlink">
<style type="text/css">
	.st0{fill:#323232;}
</style>
<g id="Layer_2">
		<path class="st0" d="m24.5 0c-13.5 0-24.5 11-24.5 24.5s11 24.5 24.5 24.5 24.5-11 24.5-24.5-11-24.5-24.5-24.5zm0 47c-12.4 0-22.5-10.1-22.5-22.5s10.1-22.5 22.5-22.5 22.5 10.1 22.5 22.5-10.1 22.5-22.5 22.5z"/>
		<path class="st0" d="m24.5 7.6c-4.4 0-7.9 3.3-8.4 7.5h-0.1v16.9h17v-16.9h-0.1c-0.5-4.2-4-7.5-8.4-7.5zm6.5 22.4h-13v-9.3c0.3 0.3 0.7 0.6 1.5 0.6 1.3 0 2.1-0.7 2.1-1.6v-0.9c0-0.5 0.4-0.9 0.9-0.9s0.9 0.4 0.9 0.9v3.3s0 1.8 2.1 1.8c2.1 0 2.1-1.8 2.1-1.8v-2.3c0-0.7 0.6-1.3 1.3-1.3s1.3 0.6 1.3 1.3v0.1s0 0.6 0.7 0.9l0.1 9.2z"/>
		<path class="st0" d="m23 40.1c0 0.8 0.7 1.5 1.5 1.5s1.5-0.7 1.5-1.5v-7.1h-3v7.1z"/>
</g>
</svg>
