<?xml version="1.0" encoding="UTF-8" standalone="no"?>
<!-- Generator: Adobe Illustrator 21.1.0, SVG Export Plug-In . SVG Version: 6.00 Build 0)  -->
<svg id="Layer_1" style="enable-background:new 0 0 49 49" xmlns="http://www.w3.org/2000/svg" xml:space="preserve" viewBox="0 0 49 49" version="1.1" y="0px" x="0px" xmlns:xlink="http://www.w3.org/1999/xlink">
<style type="text/css">
	.st0{fill:#323232;}
</style>
	<path class="st0" d="m24.5 0c-13.5 0-24.5 11-24.5 24.5s11 24.5 24.5 24.5 24.5-11 24.5-24.5-11-24.5-24.5-24.5zm0 47c-12.4 0-22.5-10.1-22.5-22.5s10.1-22.5 22.5-22.5 22.5 10.1 22.5 22.5-10.1 22.5-22.5 22.5z"/>
	<path class="st0" d="m34.8 26.8c-0.5-9.5-9.2-18.7-9.6-19.1l-0.1-0.1-0.1-0.1h-0.1-0.1-0.1-0.2-0.1-0.2-0.1s-0.1 0-0.1 0.1l-0.1 0.1c-0.4 0.4-9.1 9.6-9.6 19.1v0.2 1.1c0.4 10.3 10 12.8 10.1 12.8h0.2s0.2 0 0.2 0c0.1 0 9.7-2.6 10.1-12.8v-1.1c-0.1-0.1-0.1-0.2-0.1-0.2zm-18-3.5c2.2 2.1 5.4 3.5 6.7 4.1v4.6c-2.4-1.2-6.2-3.3-7.3-5.2 0.1-1.3 0.3-2.4 0.6-3.5zm2-5.1c1.5 1.7 3.6 2.6 4.7 3.1v3.9c-1.7-0.8-4.4-2.2-6-4 0.4-1.1 0.8-2.1 1.3-3zm12.7 2.9c-1.6 1.8-4.4 3.3-6 4v-3.9c1.1-0.4 3.2-1.4 4.7-3.1 0.5 1 0.9 2 1.3 3zm-6-2.1v-8c1 1.3 2.4 3.1 3.7 5.2-1 1.4-2.6 2.3-3.7 2.8zm0 12.9v-4.6c1.4-0.6 4.5-2 6.7-4.1 0.3 1.1 0.5 2.3 0.6 3.4-1.1 1.9-4.9 4.1-7.3 5.3zm-2-12.9c-1.1-0.5-2.7-1.4-3.6-2.8 1.3-2.1 2.6-3.9 3.6-5.2v8zm-7.1 10.8c2.3 2 5.7 3.6 7.1 4.3v4.4c-2.1-0.9-6.2-3.3-7.1-8.7zm9.1 8.7v-4.4c1.4-0.7 4.8-2.3 7.1-4.3-0.9 5.4-5 7.8-7.1 8.7z"/>
</svg>
