<?xml version="1.0" encoding="UTF-8" standalone="no"?>
<!-- Generator: Adobe Illustrator 21.1.0, SVG Export Plug-In . SVG Version: 6.00 Build 0)  -->
<svg id="Layer_1" style="enable-background:new 0 0 49 49" xmlns="http://www.w3.org/2000/svg" xml:space="preserve" viewBox="0 0 49 49" version="1.1" y="0px" x="0px" xmlns:xlink="http://www.w3.org/1999/xlink">
<style type="text/css">
	.st0{fill:#323232;}
</style>
	<path class="st0" d="m24.5 0c-13.5 0-24.5 11-24.5 24.5s11 24.5 24.5 24.5 24.5-11 24.5-24.5-11-24.5-24.5-24.5zm0 47c-12.4 0-22.5-10.1-22.5-22.5s10.1-22.5 22.5-22.5 22.5 10.1 22.5 22.5-10.1 22.5-22.5 22.5z"/>
	<path class="st0" d="m28.9 13.1c0-2.8-2.3-5-5-5s-5 2.3-5 5v14.6c-1.3 1.3-2 3.1-2 4.9 0 3.9 3.2 7.1 7.1 7.1s7.1-3.2 7.1-7.1c0-1.9-0.8-3.8-2.2-5.1v-14.4zm0.2 19.6c0 2.8-2.3 5.1-5.1 5.1s-5.1-2.3-5.1-5.1c0-1.6 0.8-3.1 2-4v-15.6c0-1.7 1.4-3 3-3s3 1.4 3 3v15.4c1.4 0.9 2.2 2.5 2.2 4.2z"/>
	<path class="st0" d="m25 29.6v-16.4c0-0.6-0.4-1-1-1s-1 0.4-1 1v16.4c-1.2 0.4-2 1.5-2 2.8 0 1.7 1.3 3 3 3s3-1.3 3-3c0-1.3-0.8-2.4-2-2.8z"/>
	<rect y="12" x="31" height="2" class="st0" width="6"/>
	<rect y="16" x="31" height="2" class="st0" width="6"/>
	<rect y="20" x="31" height="2" class="st0" width="6"/>
	<rect y="24" x="31" height="2" class="st0" width="6"/>
</svg>
