<?xml version="1.0" encoding="utf-8"?>
<!-- Generator: Adobe Illustrator 21.1.0, SVG Export Plug-In . SVG Version: 6.00 Build 0)  -->
<svg version="1.1" id="Layer_1" xmlns="http://www.w3.org/2000/svg" xmlns:xlink="http://www.w3.org/1999/xlink" x="0px" y="0px"
	 viewBox="0 0 32 32" style="enable-background:new 0 0 32 32;" xml:space="preserve">
<style type="text/css">
	.st0{fill:#849D8F;}
</style>
<g>
	<path class="st0" d="M22.3,16.5c-0.6-0.5-1.3-0.9-2.2-1.1v-0.1c0.6-0.3,1.1-0.7,1.5-1.2c0.3-0.5,0.5-1.1,0.5-1.8
		c0-0.6-0.1-1.1-0.4-1.6S21,9.9,20.5,9.6c-0.6-0.3-1.1-0.4-1.6-0.5C18.4,9,17.5,9,16.4,9H11v14h6.1c1.1,0,2-0.1,2.6-0.3
		c0.6-0.2,1.2-0.5,1.8-0.9c0.5-0.3,0.8-0.8,1.1-1.3c0.3-0.5,0.4-1.1,0.5-1.7C23.1,17.8,22.9,17,22.3,16.5z M14.5,11.5h2
		c0.4,0,0.7,0.1,1,0.2c0.3,0.1,0.5,0.3,0.6,0.5c0.1,0.2,0.2,0.5,0.2,0.7c0,0.3,0,0.5-0.1,0.8c-0.1,0.3-0.3,0.5-0.6,0.6
		c-0.3,0.1-0.6,0.2-1,0.2h-2.1V11.5z M19.1,19.7c-0.2,0.2-0.4,0.4-0.8,0.6c-0.4,0.1-0.8,0.2-1.2,0.2h-2.5V17H17c0.4,0,0.8,0,1.1,0.1
		c0.4,0.1,0.7,0.3,0.9,0.7c0.2,0.2,0.3,0.6,0.3,1C19.3,19.1,19.3,19.5,19.1,19.7z"/>
</g>
</svg>
