<?xml version="1.0" encoding="utf-8"?>
<!-- Generator: Adobe Illustrator 21.1.0, SVG Export Plug-In . SVG Version: 6.00 Build 0)  -->
<svg version="1.1" id="Layer_1" xmlns="http://www.w3.org/2000/svg" xmlns:xlink="http://www.w3.org/1999/xlink" x="0px" y="0px"
	 viewBox="0 0 38 38" style="enable-background:new 0 0 38 38;" xml:space="preserve">
<style type="text/css">
	.st0{fill:#FFFFFF;}
	.st1{opacity:0.5;fill:#FFFFFF;}
</style>
<g>
	<path class="st0" d="M19,3C10.2,3,3,10.2,3,19s7.2,16,16,16s16-7.2,16-16S27.8,3,19,3z M25.6,23.5c-0.3,0.5-0.6,1-1.1,1.3
		c-0.6,0.4-1.2,0.7-1.8,0.9c-0.6,0.2-1.5,0.3-2.6,0.3H14V12h5.4c1.1,0,2,0,2.5,0.1c0.5,0.1,1,0.2,1.6,0.5c0.5,0.3,0.9,0.6,1.2,1.1
		s0.4,1,0.4,1.6c0,0.7-0.2,1.3-0.5,1.8c-0.4,0.5-0.9,0.9-1.5,1.2v0.1c0.9,0.2,1.6,0.6,2.2,1.1c0.6,0.5,0.8,1.3,0.8,2.3
		C26,22.4,25.9,23,25.6,23.5z"/>
	<path class="st0" d="M21.1,20.1C20.8,20,20.4,20,20,20h-2.4v3.5h2.5c0.4,0,0.8-0.1,1.2-0.2c0.4-0.2,0.6-0.4,0.8-0.6
		c0.2-0.2,0.2-0.6,0.2-0.9c0-0.4-0.1-0.8-0.3-1C21.8,20.4,21.5,20.2,21.1,20.1z"/>
	<path class="st0" d="M20.6,17.3c0.3-0.1,0.5-0.3,0.6-0.6c0.1-0.3,0.1-0.5,0.1-0.8c0-0.2-0.1-0.5-0.2-0.7c-0.1-0.2-0.3-0.4-0.6-0.5
		c-0.3-0.1-0.6-0.2-1-0.2h-2v3h2.1C20,17.5,20.3,17.4,20.6,17.3z"/>
</g>
<path class="st1" d="M19,3c8.8,0,16,7.2,16,16s-7.2,16-16,16S3,27.8,3,19S10.2,3,19,3 M19,0C8.5,0,0,8.5,0,19s8.5,19,19,19
	s19-8.5,19-19S29.5,0,19,0L19,0z"/>
</svg>
