<?xml version="1.0" encoding="UTF-8" standalone="no"?>
<!-- Generator: Adobe Illustrator 21.1.0, SVG Export Plug-In . SVG Version: 6.00 Build 0)  -->
<svg id="Layer_2" style="enable-background:new 0 0 154 64" xmlns="http://www.w3.org/2000/svg" xml:space="preserve" viewBox="0 0 154 64" version="1.1" y="0px" x="0px" xmlns:xlink="http://www.w3.org/1999/xlink">
<style type="text/css">
	.st0{fill:#FFFFFF;}
</style>
	<path class="st0" d="m59.3 42.8c-0.8-0.3-2.2 0.4-2.2 0.4s-3 2.5-17.8-0.4c-10.9-2.1-16.6-1.9-16.6-1.9s1.8-12.5 1.3-16 0-0.9-1.1-0.9-1.8 0.4-1.8 1 0.2 4.4-0.3 7.1-1.4 4.3-6.2 3.9-5.6-3.8-6-6.2-0.6-8.8 0.6-11.5 7.2 0.3 11.7-3.6 4.3-7.2 2.1-8.6-7.1-1.1-11 2.4-5.1 7-5.1 7-5.6-1.2-4.3-7.1c1.4-6.1 9.8-5.4 9.8-5.4 1.8 0.3 1.8 0.5 2.4-0.1s1-2.1-1.8-2.2-11 1.3-12.5 6.8c-1.7 5.8 1.4 10 5.6 10.6 0 0-2.3 10.1 0.5 15.1s6.9 4.9 8.6 4.9 4.6-0.9 5.4-2.3-0.4 3.6-0.7 4.9c0 0-6.9-0.1-9.1 1-3.7 1.9-2.9 6.5-1.5 8.1 1.2 1.4 4.8 2.1 7.4 0.9 2.7-1.3 4.9-3.7 5.5-7.7 0 0 6.4-0.5 12.5 1.4s14.8 3.6 17.3 3.6 8-0.7 8.3-2.9c0.4-1.4-0.2-2.1-1-2.3zm-43.4-33.5s3.3-2.5 4.8-0.9c0 0 1.3 1.3 0.1 2.8-0.7 0.9-2.4 3.6-10.7 4.9 0 0 2.6-4.5 5.8-6.8zm0.2 38.9s-4.5 2.5-5-0.9c-0.3-2.2 0.9-3.2 1.7-3.6s1.9-0.9 6.6-0.7c-0.1 0.1-0.1 3.4-3.3 5.2z"/>
	<path class="st0" d="m73.6 24.5v6.8 0.1c0 0.9-0.4 1.7-0.9 2.5-0.3 0.5-0.7 1.1-1.2 1.5-0.5 0.5-0.9-0.6-1.1-1-1.4-2.9-0.7-6.8-0.2-9.9 0.3-1.5-2.7-1.1-2.9 0.2-0.3 1.9-0.9 5.1-0.5 7.9-0.6 0.1-1.2 0.4-1.3 0.7-0.5 1.1-2 4.7-3.8 3.3-1.3-1-1.5-3.7-1.6-5.3-0.2-2.1 0.2-4.3 0.8-6.3-0.1 0.2 1.1-2.8 1.7-1.7 0.3 0.7 0 2.6-0.6 3.1-1.6 1.2 0.9 1.7 1.8 1 1.8-1.4 3-5.7-0.1-6.2-3.5-0.6-5.4 2.9-6.2 5.7-0.3 1.3-0.6 3.1-0.5 4.9-0.5 0.8-2.1 3.5-3 4-1.1 0.6-1.1-0.2-1.1-0.8s0.5-5.1 0.8-8.3c0.2-2-0.1-2.8-0.5-3.6s-4-2.8-7.1 0.8c-2.2 2.5-2.9 4.9-3.1 7.1-0.2 0.4-0.4 0.9-0.7 1.4-1.5 2.8-3.4 3.9-4.1 2-0.6-1.7-0.9-3.7-0.8-6.2 0-0.1 3.5-5 5.1-11.8s1.3-10.1 0.4-10.6-4.3-1.9-6.3 6.3c-1.5 6-2.1 12.5-1.6 17.9-0.3 0.7-0.7 1.5-1.2 2.4-1.5 2.8-3.4 3.9-4.1 2-0.6-1.7-0.9-3.7-0.8-6.2 0-0.1 3.5-5 5.1-11.8s1.3-10.1 0.4-10.6-4.3-1.9-6.3 6.3-2.5 17.1-0.5 23.1 1.1 3.4 3.1 3.1c1.7-0.2 3.7-1.8 4.8-4.9 0.1 0.6 0.3 1.2 0.5 1.8 0 0 1.1 3.4 3.1 3.1 1.4-0.2 3-1.3 4.1-3.4 0.7 1.8 2.2 3.3 4.2 3 2.7-0.5 3.2-1.9 3.2-1.9s-0.1 2.4 1.7 2.4c1.5 0 2.7-0.9 3.9-3.2 0.4-0.8 0.6-1.2 0.8-1.5 0.4 2.1 1.2 4.1 3 4.8 3 1.3 5.6-1.2 7.2-3.6 0.5 1.2 1.2 2.2 2.5 2.6 1.3 0.5 2.7 0 3.8-0.9v3.5c-0.6 0-1.2 0.1-1.5 0.4-3.2 2.8-4.6 6.2-4.2 10.5 0.2 2.5 2.6 3.6 4.7 2.7 3.1-1.3 3.6-6 3.8-8.8 0.6-6.8 0.1-13.9 0.1-20.8 0.1-1.2-2.8-0.7-2.8 0.4zm-43.3-11.2c0.7-2.7 1.3-3.7 2-3.7s0.9 0.7 0.5 3-2 8.6-4.1 12.8c-0.1-0.1 0.9-9.5 1.6-12.1zm8.4 0c0.7-2.7 1.3-3.7 2-3.7s0.9 0.7 0.5 3-2 8.6-4.1 12.8c-0.1-0.1 0.9-9.5 1.6-12.1zm12.8 12.4c-0.1 0.6-0.5 4.3-1 6.3s-1 2.8-2.6 3.4c-1.7 0.7-2.4-1.4-2.4-1.4-1.1-3.2 0.4-6 1.7-7.9s2.6-2.1 3.3-2c0.3 0.1 1.2 0.5 1 1.6zm22 18.1c0 2.7-0.4 5.4-1.6 7.8-0.7 0.1-1-0.1-1.2-1.2-0.1-1.1-0.1-2.2 0-3.3 0.2-2 1.4-3.7 2.8-5.2v1.9z"/>
	<path class="st0" d="m92.3 21.6c-2.5-1.2-4.8-3.3-5.7-6-1.3-3.8 2.9-6.6 6.3-6.5 3.5 0.2 5.1 3.6 5 6.7-0.1 1.1-0.7 3.6-2.1 2.3-1-0.9-1.4-2.4-1.6-3.6s-3.1-0.5-2.9 0.8c0.6 3.7 4.5 7.7 7.9 3.9 3-3.4 1.7-9.5-2.6-11.2-4.5-2-10.1 0-12.5 4.3-2.7 4.9 2.7 9.6 6.6 11.3 6.2 3.3 6.5 14.1-1.8 14.1-3.4 0-6.6-2.4-7.7-5.6-0.6-1.7-0.3-7.6 2-8 1.8-0.4 1.3-2-0.5-1.7-3.7 0.7-5.1 5.5-4.7 8.9 0.6 5.3 5.6 8.3 10.6 8.3 4.7 0 8.7-2.9 9.6-7.5 1-4.6-1.8-8.9-5.9-10.5z"/>
	<path class="st0" d="m110.9 37.5c-2.9-1.6-1.2-7.6-0.8-9.9 0.3-1.5 1.6-3.8-0.5-4.3-2.4-0.6-5.2 1.7-7.3 3.9 0-2.5 0.2-5 0.6-7.5 3.1-1.6 5.4-3.8 7.2-7.4 1.3-2.6 1.9-8-2.5-6.4-4 1.4-5.4 6-6.6 9.7-0.5 1.4-0.8 2.9-1.1 4.4-0.4 0.2-0.8 0.3-1.2 0.4-1.7 0.5-1.4 1.4 0.2 0.9 0.3-0.1 0.5-0.2 0.8-0.3-0.8 5.6-0.3 11.5 0.2 17 0 0.5 3 0 2.9-0.8-0.2-2.5-0.4-4.9-0.5-7.4 0.3-0.1 0.5-0.2 0.6-0.4 0.9-1.2 2-2.2 3.1-3.2 0.3-0.3 0.6-0.5 0.9-0.8 0.2-0.1 0.3-0.2 0.5-0.3 0.7-0.5 0.8-0.5 0.4 0-0.1 0.9-0.5 1.9-0.6 2.8-0.5 3-2.1 8.9 1.3 10.8 0.8 0.5 3.5-0.6 2.4-1.2zm-6.5-24.1c0.3-0.9 0.7-1.8 1.1-2.6 0.5-1.1 1.7-4.8 2.6-3 0.7 1.4-0.4 3.7-0.9 5.1-0.8 2.2-2.3 4-4 5.3 0.3-1.6 0.7-3.2 1.2-4.8z"/>
	<path class="st0" d="m121.6 30.5c0-3.3-0.4-7.5-4.3-7.9-4.3-0.4-6 4.1-6.1 7.5 0 0.3 0.1 0.5 0.3 0.6 0 3.1 0.8 7.3 4.5 7.2 4.3 0 5.6-3.7 5.6-7.4zm-5 5.5c-2.4-1-2.2-5.2-2.1-7.2 0-0.2-0.1-0.4-0.2-0.5 0.3-2 1.1-5 2.9-3.5 1.4 1.2 1.4 4.1 1.5 5.8 0.1 1.1-0.1 6.2-2.1 5.4z"/>
	<path class="st0" d="m153.1 48.6c-1.1-2.9-3.6-4-6.3-4.1-0.3-0.7-0.7-1.4-1.1-2.1-3.9-5.8-13.2-5-19.5-1.9 0-0.9-0.1-1.8-0.1-2.7 2.5 0.1 5-0.9 6.5-3 1.7-2.4 1.4-6.6 0.8-9.3-0.6-2.5-3.1-2.1-4.9-1.2-0.7 0.3-1.3 0.7-1.9 1.3 0.1-0.7 0.1-1.3 0.2-2 0.1-1.5-2.8-1.2-2.9 0.2-0.5 6.2-0.3 12.4-0.4 18.5-4.3 3.9-5.3 7.5-5.4 12.1 0 2.3 1.9 4 4 2.4 2.9-2.2 3.8-6.6 4.2-10 0.2-1.5 0.2-3 0.2-4.5 4.5-2.9 10.6-3.1 15.2-0.1 0.9 0.6 1.7 1.6 2.3 2.7-1.7 0.3-3.3 0.9-4.6 1.5-1.7 0.8-4.3 2.8-4.1 4.9 0.1 1.7 1 2.6 2.3 3 0.1 0 0.2 0.1 0.3 0.1 6.1 1 10.7-2.6 9.8-7.7 3 1.6 4.1 5.4 3 8.7-2.4 7.3-11.6 8.9-16.9 4.1-0.6-0.5-3.2 0.6-2.7 1 7.5 6.7 26.7 0.2 22-11.9zm-29.9-1.8c-0.1 1.7-0.5 3.5-1.1 5.1-0.2 0.5-0.5 1.1-0.8 1.6 0 0-0.3 0.1-0.3-0.7 0-2.9 0.8-5.6 2.3-7.9 0 0.7-0.1 1.3-0.1 1.9zm3.1-17.9c0.1-0.1 0.1-0.1 0.1-0.2 0.5-0.9 1.2-1.7 1.9-2.5 0.5-0.6 1.1-1.1 1.8-1.5 0.3 0.2 0.7 1 0.8 2.1 0.3 2.8 0.4 10.1-3.9 9.4-0.2 0-0.6 0-0.9 0.2-0.1-2.5 0-5 0.2-7.5zm13.1 23.8c-1.7-0.4-1.6-2-1.3-3.1 0.5-2.5 3.6-3.9 6.1-4 1.3 3.6 0.3 7.9-4.8 7.1z"/>
</svg>
