<?xml version="1.0" encoding="utf-8"?>
<!-- Generator: Adobe Illustrator 21.1.0, SVG Export Plug-In . SVG Version: 6.00 Build 0)  -->
<svg version="1.1" id="Layer_2" xmlns="http://www.w3.org/2000/svg" xmlns:xlink="http://www.w3.org/1999/xlink" x="0px" y="0px"
	 viewBox="0 0 154 63" style="enable-background:new 0 0 154 63;" xml:space="preserve">
<style type="text/css">
	.st0{fill:#FFFFFF;}
</style>
<path class="st0" d="M59.3,42.3c-0.8-0.3-2.2,0.4-2.2,0.4s-3,2.5-17.8-0.4c-10.9-2.1-16.6-1.9-16.6-1.9s1.8-12.5,1.3-16
	s0-0.9-1.1-0.9s-1.8,0.4-1.8,1s0.2,4.4-0.3,7.1s-1.4,4.3-6.2,3.9s-5.6-3.8-6-6.2S8,20.5,9.2,17.8s7.2,0.3,11.7-3.6S25.2,7,23,5.6
	S15.9,4.5,12,8s-5.1,7-5.1,7s-5.6-1.2-4.3-7.1c1.4-6.1,9.8-5.4,9.8-5.4c1.8,0.3,1.8,0.5,2.4-0.1s1-2.1-1.8-2.2S2,1.5,0.5,7
	c-1.7,5.8,1.4,10,5.6,10.6c0,0-2.3,10.1,0.5,15.1s6.9,4.9,8.6,4.9s4.6-0.9,5.4-2.3s-0.4,3.6-0.7,4.9c0,0-6.9-0.1-9.1,1
	c-3.7,1.9-2.9,6.5-1.5,8.1c1.2,1.4,4.8,2.1,7.4,0.9c2.7-1.3,4.9-3.7,5.5-7.7c0,0,6.4-0.5,12.5,1.4s14.8,3.6,17.3,3.6s8-0.7,8.3-2.9
	C60.7,43.2,60.1,42.5,59.3,42.3z M15.9,8.8c0,0,3.3-2.5,4.8-0.9c0,0,1.3,1.3,0.1,2.8c-0.7,0.9-2.4,3.6-10.7,4.9
	C10.1,15.6,12.7,11.1,15.9,8.8z M16.1,47.7c0,0-4.5,2.5-5-0.9c-0.3-2.2,0.9-3.2,1.7-3.6s1.9-0.9,6.6-0.7
	C19.3,42.6,19.3,45.9,16.1,47.7z"/>
<path class="st0" d="M73.6,24v6.8v0.1c0,0.9-0.4,1.7-0.9,2.5c-0.3,0.5-0.7,1.1-1.2,1.5c-0.5,0.5-0.9-0.6-1.1-1
	C69,31,69.7,27.1,70.2,24c0.3-1.5-2.7-1.1-2.9,0.2c-0.3,1.9-0.9,5.1-0.5,7.9c-0.6,0.1-1.2,0.4-1.3,0.7c-0.5,1.1-2,4.7-3.8,3.3
	c-1.3-1-1.5-3.7-1.6-5.3c-0.2-2.1,0.2-4.3,0.8-6.3c-0.1,0.2,1.1-2.8,1.7-1.7c0.3,0.7,0,2.6-0.6,3.1c-1.6,1.2,0.9,1.7,1.8,1
	c1.8-1.4,3-5.7-0.1-6.2c-3.5-0.6-5.4,2.9-6.2,5.7c-0.3,1.3-0.6,3.1-0.5,4.9c-0.5,0.8-2.1,3.5-3,4c-1.1,0.6-1.1-0.2-1.1-0.8
	s0.5-5.1,0.8-8.3c0.2-2-0.1-2.8-0.5-3.6s-4-2.8-7.1,0.8c-2.2,2.5-2.9,4.9-3.1,7.1c-0.2,0.4-0.4,0.9-0.7,1.4c-1.5,2.8-3.4,3.9-4.1,2
	c-0.6-1.7-0.9-3.7-0.8-6.2c0-0.1,3.5-5,5.1-11.8s1.3-10.1,0.4-10.6s-4.3-1.9-6.3,6.3c-1.5,6-2.1,12.5-1.6,17.9
	c-0.3,0.7-0.7,1.5-1.2,2.4c-1.5,2.8-3.4,3.9-4.1,2c-0.6-1.7-0.9-3.7-0.8-6.2c0-0.1,3.5-5,5.1-11.8s1.3-10.1,0.4-10.6
	s-4.3-1.9-6.3,6.3s-2.5,17.1-0.5,23.1s1.1,3.4,3.1,3.1c1.7-0.2,3.7-1.8,4.8-4.9c0.1,0.6,0.3,1.2,0.5,1.8c0,0,1.1,3.4,3.1,3.1
	c1.4-0.2,3-1.3,4.1-3.4c0.7,1.8,2.2,3.3,4.2,3c2.7-0.5,3.2-1.9,3.2-1.9s-0.1,2.4,1.7,2.4c1.5,0,2.7-0.9,3.9-3.2
	c0.4-0.8,0.6-1.2,0.8-1.5c0.4,2.1,1.2,4.1,3,4.8c3,1.3,5.6-1.2,7.2-3.6c0.5,1.2,1.2,2.2,2.5,2.6c1.3,0.5,2.7,0,3.8-0.9v3.5
	c-0.6,0-1.2,0.1-1.5,0.4c-3.2,2.8-4.6,6.2-4.2,10.5c0.2,2.5,2.6,3.6,4.7,2.7c3.1-1.3,3.6-6,3.8-8.8c0.6-6.8,0.1-13.9,0.1-20.8
	C76.5,22.4,73.6,22.9,73.6,24L73.6,24z M30.3,12.8c0.7-2.7,1.3-3.7,2-3.7s0.9,0.7,0.5,3s-2,8.6-4.1,12.8
	C28.6,24.8,29.6,15.4,30.3,12.8z M38.7,12.8c0.7-2.7,1.3-3.7,2-3.7s0.9,0.7,0.5,3s-2,8.6-4.1,12.8C37,24.8,38,15.4,38.7,12.8z
	 M51.5,25.2c-0.1,0.6-0.5,4.3-1,6.3s-1,2.8-2.6,3.4c-1.7,0.7-2.4-1.4-2.4-1.4c-1.1-3.2,0.4-6,1.7-7.9s2.6-2.1,3.3-2
	C50.8,23.7,51.7,24.1,51.5,25.2z M73.5,43.3c0,2.7-0.4,5.4-1.6,7.8c-0.7,0.1-1-0.1-1.2-1.2c-0.1-1.1-0.1-2.2,0-3.3
	c0.2-2,1.4-3.7,2.8-5.2C73.5,41.4,73.5,43.3,73.5,43.3z"/>
<path class="st0" d="M92.3,21.1c-2.5-1.2-4.8-3.3-5.7-6c-1.3-3.8,2.9-6.6,6.3-6.5c3.5,0.2,5.1,3.6,5,6.7c-0.1,1.1-0.7,3.6-2.1,2.3
	c-1-0.9-1.4-2.4-1.6-3.6s-3.1-0.5-2.9,0.8c0.6,3.7,4.5,7.7,7.9,3.9c3-3.4,1.7-9.5-2.6-11.2c-4.5-2-10.1,0-12.5,4.3
	c-2.7,4.9,2.7,9.6,6.6,11.3c6.2,3.3,6.5,14.1-1.8,14.1c-3.4,0-6.6-2.4-7.7-5.6c-0.6-1.7-0.3-7.6,2-8c1.8-0.4,1.3-2-0.5-1.7
	c-3.7,0.7-5.1,5.5-4.7,8.9c0.6,5.3,5.6,8.3,10.6,8.3c4.7,0,8.7-2.9,9.6-7.5C99.2,27,96.4,22.7,92.3,21.1z"/>
<path class="st0" d="M110.9,37c-2.9-1.6-1.2-7.6-0.8-9.9c0.3-1.5,1.6-3.8-0.5-4.3c-2.4-0.6-5.2,1.7-7.3,3.9c0-2.5,0.2-5,0.6-7.5
	c3.1-1.6,5.4-3.8,7.2-7.4c1.3-2.6,1.9-8-2.5-6.4c-4,1.4-5.4,6-6.6,9.7c-0.5,1.4-0.8,2.9-1.1,4.4c-0.4,0.2-0.8,0.3-1.2,0.4
	c-1.7,0.5-1.4,1.4,0.2,0.9c0.3-0.1,0.5-0.2,0.8-0.3c-0.8,5.6-0.3,11.5,0.2,17c0,0.5,3,0,2.9-0.8c-0.2-2.5-0.4-4.9-0.5-7.4
	c0.3-0.1,0.5-0.2,0.6-0.4c0.9-1.2,2-2.2,3.1-3.2c0.3-0.3,0.6-0.5,0.9-0.8c0.2-0.1,0.3-0.2,0.5-0.3c0.7-0.5,0.8-0.5,0.4,0
	c-0.1,0.9-0.5,1.9-0.6,2.8c-0.5,3-2.1,8.9,1.3,10.8C109.3,38.7,112,37.6,110.9,37z M104.4,12.9c0.3-0.9,0.7-1.8,1.1-2.6
	c0.5-1.1,1.7-4.8,2.6-3c0.7,1.4-0.4,3.7-0.9,5.1c-0.8,2.2-2.3,4-4,5.3C103.5,16.1,103.9,14.5,104.4,12.9z"/>
<path class="st0" d="M121.6,30c0-3.3-0.4-7.5-4.3-7.9c-4.3-0.4-6,4.1-6.1,7.5c0,0.3,0.1,0.5,0.3,0.6c0,3.1,0.8,7.3,4.5,7.2
	C120.3,37.4,121.6,33.7,121.6,30z M116.6,35.5c-2.4-1-2.2-5.2-2.1-7.2c0-0.2-0.1-0.4-0.2-0.5c0.3-2,1.1-5,2.9-3.5
	c1.4,1.2,1.4,4.1,1.5,5.8C118.8,31.2,118.6,36.3,116.6,35.5z"/>
<path class="st0" d="M153.1,48.1c-1.1-2.9-3.6-4-6.3-4.1c-0.3-0.7-0.7-1.4-1.1-2.1c-3.9-5.8-13.2-5-19.5-1.9c0-0.9-0.1-1.8-0.1-2.7
	c2.5,0.1,5-0.9,6.5-3c1.7-2.4,1.4-6.6,0.8-9.3c-0.6-2.5-3.1-2.1-4.9-1.2c-0.7,0.3-1.3,0.7-1.9,1.3c0.1-0.7,0.1-1.3,0.2-2
	c0.1-1.5-2.8-1.2-2.9,0.2c-0.5,6.2-0.3,12.4-0.4,18.5c-4.3,3.9-5.3,7.5-5.4,12.1c0,2.3,1.9,4,4,2.4c2.9-2.2,3.8-6.6,4.2-10
	c0.2-1.5,0.2-3,0.2-4.5c4.5-2.9,10.6-3.1,15.2-0.1c0.9,0.6,1.7,1.6,2.3,2.7c-1.7,0.3-3.3,0.9-4.6,1.5c-1.7,0.8-4.3,2.8-4.1,4.9
	c0.1,1.7,1,2.6,2.3,3c0.1,0,0.2,0.1,0.3,0.1c6.1,1,10.7-2.6,9.8-7.7c3,1.6,4.1,5.4,3,8.7c-2.4,7.3-11.6,8.9-16.9,4.1
	c-0.6-0.5-3.2,0.6-2.7,1C138.6,66.7,157.8,60.2,153.1,48.1z M123.2,46.3c-0.1,1.7-0.5,3.5-1.1,5.1c-0.2,0.5-0.5,1.1-0.8,1.6
	c0,0-0.3,0.1-0.3-0.7c0-2.9,0.8-5.6,2.3-7.9C123.3,45.1,123.2,45.7,123.2,46.3z M126.3,28.4c0.1-0.1,0.1-0.1,0.1-0.2
	c0.5-0.9,1.2-1.7,1.9-2.5c0.5-0.6,1.1-1.1,1.8-1.5c0.3,0.2,0.7,1,0.8,2.1c0.3,2.8,0.4,10.1-3.9,9.4c-0.2,0-0.6,0-0.9,0.2
	C126,33.4,126.1,30.9,126.3,28.4z M139.4,52.2c-1.7-0.4-1.6-2-1.3-3.1c0.5-2.5,3.6-3.9,6.1-4C145.5,48.7,144.5,53,139.4,52.2z"/>
</svg>
