<?xml version="1.0" encoding="utf-8"?>
<!-- Generator: Adobe Illustrator 21.1.0, SVG Export Plug-In . SVG Version: 6.00 Build 0)  -->
<svg version="1.1" id="Layer_1" xmlns="http://www.w3.org/2000/svg" xmlns:xlink="http://www.w3.org/1999/xlink" x="0px" y="0px"
	 viewBox="0 0 215 140" style="enable-background:new 0 0 215 140;" xml:space="preserve">
<style type="text/css">
	.st0{fill:#E84D37;}
</style>
<g>
	<path class="st0" d="M39.5,7.1c15.6,0,28.3,12.7,28.3,28.3c0,5.1-1.4,9.9-3.7,14c4.5,0.6,8,4.5,8,9.2c0,5.1-4.2,9.3-9.3,9.3
		c-4.7,0-8.5-3.5-9.2-8c-0.4,0.2-0.7,0.4-1.1,0.6c-1,6.3-6.4,11-13,11c-6.5,0-12-4.8-13-11c-0.4-0.2-0.7-0.4-1.1-0.6
		c-0.6,4.5-4.5,8-9.2,8c-5.1,0-9.3-4.2-9.3-9.3c0-4.7,3.5-8.5,8-9.2c-2.4-4.1-3.7-8.9-3.7-14C11.2,19.8,23.9,7.1,39.5,7.1 M39.5,0.1
		C20,0.1,4.2,15.9,4.2,35.4c0,3.6,0.6,7.3,1.7,10.7C2.3,49.1,0,53.7,0,58.6c0,9,7.3,16.3,16.3,16.3c3.2,0,6.1-0.9,8.7-2.5
		c3.7,3.8,8.9,6.2,14.6,6.2s10.9-2.3,14.6-6.2c2.5,1.6,5.5,2.5,8.7,2.5c9,0,16.3-7.3,16.3-16.3c0-5-2.3-9.5-5.9-12.5
		C74.4,42.6,75,39,75,35.4C74.8,15.9,59,0.1,39.5,0.1z"/>
	<path class="st0" d="M62.7,78.9c-2.8,0-5.6-0.6-8-1.7c-0.4,0.3-0.8,0.6-1.1,0.9l0.5,0.5l-3.9,3.9l-1.7-1.7
		c-0.7,0.3-1.4,0.5-2.1,0.7l2.4,2.4l-3.9,3.9L41,83.9l1.6-1.6c-1,0.1-2,0.2-3,0.2s-2-0.1-2.9-0.2l1.5,1.5l-3.9,3.9l-3.9-3.9l2.3-2.3
		c-0.7-0.2-1.4-0.5-2.1-0.7L29,82.4l-3.9-3.9l0.5-0.5l-1.2-0.9c-2.5,1.1-5.2,1.7-8,1.7h-0.6c-0.1,0.5,0,1.1,0.2,1.6l20.4,57.1
		c0,0.1,0.1,0.1,0.1,0.2s0.1,0.1,0.1,0.2c0.1,0.1,0.2,0.3,0.2,0.4l0.1,0.1c0.1,0.2,0.3,0.3,0.4,0.5l0.1,0.1c0.1,0.1,0.3,0.2,0.4,0.3
		c0.1,0,0.1,0.1,0.2,0.1c0.1,0.1,0.3,0.1,0.4,0.2c0,0,0.1,0,0.1,0.1h0.1c0.1,0,0.3,0.1,0.4,0.1h0.2h0.6c0,0,0.4,0,0.6,0h0.2
		c0.1,0,0.3-0.1,0.4-0.1h0.1c0,0,0.1,0,0.1-0.1c0.1-0.1,0.3-0.1,0.4-0.2c0.1,0,0.1-0.1,0.2-0.1c0.1-0.1,0.3-0.2,0.4-0.3l0.1-0.1
		c0.2-0.1,0.3-0.3,0.4-0.5l0.1-0.1c0.1-0.1,0.2-0.3,0.2-0.4s0.1-0.1,0.1-0.2s0.1-0.1,0.1-0.2l20.4-57.1c0.2-0.5,0.2-1.1,0.2-1.6
		C63.1,78.9,62.9,78.9,62.7,78.9L62.7,78.9z M48.8,94.5l-3.9,3.9L41,94.5l3.9-3.9L48.8,94.5z M35.6,99.9l3.9-3.9l3.9,3.9l-3.9,3.9
		L35.6,99.9z M43.4,110.5l-3.9,3.9l-3.9-3.9l3.9-3.9L43.4,110.5z M39.5,85.3l3.9,3.9l-3.9,3.9l-3.9-3.9L39.5,85.3z M38.1,94.5
		l-3.9,3.9l-3.9-3.9l3.9-3.9L38.1,94.5z M23.2,80.4l0.4-0.4l3.9,3.9l-2.2,2.2C25.3,86.1,23.2,80.4,23.2,80.4z M26,88.2l2.9-2.9
		l3.9,3.9l-3.9,3.9l-1.8-1.8C27.1,91.3,26,88.2,26,88.2z M28.8,96.1l0.1-0.1l3.9,3.9l-2,2C30.8,101.9,28.8,96.1,28.8,96.1z
		 M33,107.9l-1.4-4l2.6-2.6l3.9,3.9l-3.9,3.9C34.2,109.1,33,107.9,33,107.9z M36.4,117.5l-1.9-5.2l3.5,3.5L36.4,117.5z M39.5,126
		l-2.3-6.5l2.4-2.4l2.3,2.3L39.5,126z M42.6,117.4l-1.6-1.6l3.4-3.4C44.4,112.4,42.6,117.4,42.6,117.4z M45.9,108l-1.1,1.1l-3.9-3.9
		l3.9-3.9l2.6,2.6C47.4,103.9,45.9,108,45.9,108z M48.2,101.7l-1.9-1.9l3.9-3.9L48.2,101.7z M51.8,91.5l-1.7,1.7l-3.9-3.9l3.9-3.9
		l2.8,2.8L51.8,91.5z M53.7,86.1l-2.2-2.2l4-3.9l0.3,0.3C55.8,80.3,53.7,86.1,53.7,86.1z"/>
</g>
</svg>
