<?xml version="1.0" encoding="UTF-8" standalone="no"?>
<!-- Generator: Adobe Illustrator 21.1.0, SVG Export Plug-In . SVG Version: 6.00 Build 0)  -->
<svg id="Layer_1" style="enable-background:new 0 0 80 140" xmlns="http://www.w3.org/2000/svg" xml:space="preserve" viewBox="0 0 80 140" version="1.1" y="0px" x="0px" xmlns:xlink="http://www.w3.org/1999/xlink">
<style type="text/css">
	.st0{fill:#E84D37;}
</style>
	<path class="st0" d="m40 7.1c15.6 0 28.3 12.7 28.3 28.3 0 5.1-1.4 9.9-3.7 14 4.5 0.6 8 4.5 8 9.2 0 5.1-4.2 9.3-9.3 9.3-4.7 0-8.5-3.5-9.2-8-0.4 0.2-0.7 0.4-1.1 0.6-1 6.3-6.4 11-13 11-6.5 0-12-4.8-13-11-0.4-0.2-0.7-0.4-1.1-0.6-0.6 4.5-4.5 8-9.2 8-5.1 0-9.3-4.2-9.3-9.3 0-4.7 3.5-8.5 8-9.2-2.4-4.1-3.7-8.9-3.7-14 0-15.6 12.7-28.3 28.3-28.3m0-7c-19.5 0-35.3 15.8-35.3 35.3 0 3.6 0.6 7.3 1.7 10.7-3.6 3-5.9 7.6-5.9 12.5 0 9 7.3 16.3 16.3 16.3 3.2 0 6.1-0.9 8.7-2.5 3.7 3.8 8.9 6.2 14.6 6.2s10.9-2.3 14.6-6.2c2.5 1.6 5.5 2.5 8.7 2.5 9 0 16.3-7.3 16.3-16.3 0-5-2.3-9.5-5.9-12.5 1.1-3.5 1.7-7.1 1.7-10.7-0.2-19.5-16-35.3-35.5-35.3z"/>
<path class="st0" d="m63.2 78.9c-2.8 0-5.6-0.6-8-1.7-0.4 0.3-0.8 0.6-1.1 0.9l0.5 0.5-3.9 3.9-1.7-1.7c-0.7 0.3-1.4 0.5-2.1 0.7l2.4 2.4-3.9 3.9-3.9-3.9 1.6-1.6c-1 0.1-2 0.2-3 0.2s-2-0.1-2.9-0.2l1.5 1.5-3.9 3.9-3.9-3.9 2.3-2.3c-0.7-0.2-1.4-0.5-2.1-0.7l-1.6 1.6-3.9-3.9 0.5-0.5-1.2-0.9c-2.5 1.1-5.2 1.7-8 1.7h-0.6c-0.1 0.5 0 1.1 0.2 1.6l20.4 57.1c0 0.1 0.1 0.1 0.1 0.2s0.1 0.1 0.1 0.2c0.1 0.1 0.2 0.3 0.2 0.4l0.1 0.1c0.1 0.2 0.3 0.3 0.4 0.5l0.1 0.1c0.1 0.1 0.3 0.2 0.4 0.3 0.1 0 0.1 0.1 0.2 0.1 0.1 0.1 0.3 0.1 0.4 0.2 0 0 0.1 0 0.1 0.1h0.1c0.1 0 0.3 0.1 0.4 0.1h0.2 0.6s0.4 0 0.6 0h0.2c0.1 0 0.3-0.1 0.4-0.1h0.1s0.1 0 0.1-0.1c0.1-0.1 0.3-0.1 0.4-0.2 0.1 0 0.1-0.1 0.2-0.1 0.1-0.1 0.3-0.2 0.4-0.3l0.1-0.1c0.2-0.1 0.3-0.3 0.4-0.5l0.1-0.1c0.1-0.1 0.2-0.3 0.2-0.4s0.1-0.1 0.1-0.2 0.1-0.1 0.1-0.2l20.4-57.1c0.2-0.5 0.2-1.1 0.2-1.6-0.7 0.1-0.9 0.1-1.1 0.1zm-13.9 15.6l-3.9 3.9-3.9-3.9 3.9-3.9 3.9 3.9zm-13.2 5.4l3.9-3.9 3.9 3.9-3.9 3.9-3.9-3.9zm7.8 10.6l-3.9 3.9-3.9-3.9 3.9-3.9 3.9 3.9zm-3.9-25.2l3.9 3.9-3.9 3.9-3.9-3.9 3.9-3.9zm-1.4 9.2l-3.9 3.9-3.9-3.9 3.9-3.9 3.9 3.9zm-14.9-14.1l0.4-0.4 3.9 3.9-2.2 2.2-2.1-5.7zm2.8 7.8l2.9-2.9 3.9 3.9-3.9 3.9-1.8-1.8-1.1-3.1zm2.8 7.9l0.1-0.1 3.9 3.9-2 2-2-5.8zm4.2 11.8l-1.4-4 2.6-2.6 3.9 3.9-3.9 3.9-1.2-1.2zm3.4 9.6l-1.9-5.2 3.5 3.5-1.6 1.7zm3.1 8.5l-2.3-6.5 2.4-2.4 2.3 2.3-2.4 6.6zm3.1-8.6l-1.6-1.6 3.4-3.4-1.8 5zm3.3-9.4l-1.1 1.1-3.9-3.9 3.9-3.9 2.6 2.6-1.5 4.1zm2.3-6.3l-1.9-1.9 3.9-3.9-2 5.8zm3.6-10.2l-1.7 1.7-3.9-3.9 3.9-3.9 2.8 2.8-1.1 3.3zm1.9-5.4l-2.2-2.2 4-3.9 0.3 0.3-2.1 5.8z"/>
</svg>
